<?xml version="1.0" encoding="UTF-8"?>
<svg id="a" data-name="Layer 1" xmlns="http://www.w3.org/2000/svg" viewBox="0 0 971.5 1213.04">
  <path d="M520.43,422.57c7.48,19.03,23.89,39.55,41.69,49.8,17.46,10.05,35.63,10.27,55.36,8.75,94.43-92.38,253.06-72.83,323.36,38.53,72.47,114.81,9.81,268.93-118.42,306.41-168.4,49.22-317.56-123.86-246.85-283.85,4.35-9.84,10.3-18.91,14.85-28.64-30.19-.46-58.5-15.09-75.81-39.69-3.62-5.15-17.92-33.44-19.7-34.31-1.56-.77-1.37.69-1.71,1.27-5.4,9.29-8.42,14.21-17.47,20.54-12.83,8.98-28.93,14.17-41.88,23.18l.33,2.7c49.36,72.69,68.98,152.58,73.27,239.77.97,19.68-.96,42.85.97,62.03,2.15,21.27,22.16,21.31,37.95,27.05,70.38,25.6,122.43,74.19,138.36,149.64,35.98,170.43-144.77,306.54-296.99,220.99-138.46-77.82-138.1-278.94,1.65-355.69,28.9-15.87,54.36-14.32,67.04-48.96,20.98-57.33-1.17-174.91-24.84-231.19-7.73-18.37-24.75-55.88-43.9-63.1l-37.27-8.22c35.23,33.44,56.4,77.94,60.99,126.5,17.17,181.44-191.85,299.17-334.45,182.45-155.64-127.4-58.54-375.42,141.95-365.95,17.7.84,32.96,6.09,49.12,7.88,11.85,1.32,24.36.47,36.76,2.24,40.81,5.84,71.74,24.21,114.66,16.39,20.01-3.65,39.9-11.07,54.97-25.03-10.54-2.18-21.6-2.15-32.35-3.64-146.61-20.36-260.2-142.34-261.65-291.86,66.79,1.72,134.65,20.5,189.32,59.19,57.95,41.01,102.71,102.28,119,172l3.67,18.81c20.18-156.31,127.98-293.91,275.5-349.01C819.11,10.42,873.77.82,928.5,0c1.18.84,1.03,2.69.97,4.01-6.67,149.59-92.59,284.81-220.73,359.35-57.09,33.21-122.44,53-188.3,59.2ZM234.43,449.57c-39.19-1.19-79.85,16.46-105,46.49-.94,1.12-2.43,1.63-1.99,3.5,32.3-13.89,67.09-17.58,101.99-13.99-.11-12.21,2.91-24.09,4.99-36ZM846.43,500.55c-33.48-38.39-87.34-60.82-138-46.49-47.32,13.39-82.04,62.67-81.99,111.49l15.02-22.47c22.78-27.83,55.54-47.63,90.79-55.21,38.66-8.32,77.88-1.51,114.19,12.68ZM346.42,565.56c1.76-42.79-29.01-89.74-68.32-106.17-2.35-.98-7.68-3.82-9.72-2.39-1.53,1.07-12.96,33.95-11.86,35.47,29.38,8.76,55.56,26.96,74.88,50.62l15.02,22.47ZM484.43,830.56v40c19.91-.64,39.95,2.28,58.77,8.73,3,1.03,20.34,8.97,21.23,8.26-8.41-36.81-43.7-57.48-80-56.99Z"/>
</svg>